<?xml version="1.0" standalone="no"?>
<!DOCTYPE svg PUBLIC "-//W3C//DTD SVG 20010904//EN"
 "http://www.w3.org/TR/2001/REC-SVG-20010904/DTD/svg10.dtd">
<svg version="1.0" xmlns="http://www.w3.org/2000/svg"
 width="1280.000000pt" height="738.000000pt" viewBox="0 0 1280.000000 738.000000"
 preserveAspectRatio="xMidYMid meet">
<g transform="translate(0.000000,738.000000) scale(0.100000,-0.100000)"
fill="#000000" stroke="none">
<path d="M12665 7333 c-120 -33 -3394 -938 -10625 -2938 -1085 -300 -1976
-548 -1979 -550 -2 -3 -2 -7 0 -9 2 -2 677 -192 1499 -421 l1495 -416 2945
1326 c5266 2372 6336 2853 6443 2899 110 47 228 89 234 83 8 -9 -213 -154
-1092 -718 -517 -331 -2114 -1356 -3550 -2277 -1435 -922 -2670 -1713 -2742
-1760 -73 -46 -133 -88 -133 -92 0 -4 737 -501 1637 -1103 901 -603 1720
-1151 1821 -1218 115 -78 186 -119 192 -113 12 12 3960 7315 3960 7326 0 10 4
11 -105 -19z"/>
<path d="M12400 7179 c-120 -59 -4196 -2009 -8204 -3925 -516 -247 -941 -454
-943 -461 -3 -6 201 -589 452 -1295 539 -1513 497 -1397 503 -1378 3 8 114
556 247 1218 133 661 246 1207 251 1212 8 8 2909 1743 6549 3916 1308 781
1313 784 1300 784 -6 0 -75 -32 -155 -71z"/>
<path d="M5045 2248 c-17 -46 -565 -2191 -561 -2195 5 -5 1589 1432 1594 1447
2 7 -994 748 -1020 758 -4 2 -10 -2 -13 -10z"/>
</g>
</svg>
